# xmcd
#
# Track frame offsets: 
#        150
#        15030
#        30923
#        42373
#        59697
#        74864
#        93894
#        110461
#        125294
#        140868
#        154934
#        171398
#        185006
#
# Disc length: 2672 seconds
#
# Revision: 0
# Processed by: cddbd v1.5PL3 Copyright (c) Steve Scherf et al.
# Submitted via: ExactAudioCopy v0.95a5
#
DISCID=b60a6e0d
DTITLE=Tad Marks - Our Crazy Love Affair
DYEAR=2003
DGENRE=Bluegrass
TTITLE0=Our Crazy Love Affair
TTITLE1=The March To Gettysburg
TTITLE2=True Companion
TTITLE3=Carlene
TTITLE4=A Love So True
TTITLE5=Oh Mexico
TTITLE6=Proud Nation
TTITLE7=East Tennessee Girl
TTITLE8=Dokpik Waltz
TTITLE9=My Carolina
TTITLE10=Hoofer's Hornpipe/Temperance Reel
TTITLE11=It's Only A Paper Moon
TTITLE12=Little Cabana
EXTD=
EXTT0=
EXTT1=
EXTT2=
EXTT3=
EXTT4=
EXTT5=
EXTT6=
EXTT7=
EXTT8=
EXTT9=
EXTT10=
EXTT11=
EXTT12=
PLAYORDER=
